<svg width="288" height="172" viewBox="0 0 288 172" fill="none" xmlns="http://www.w3.org/2000/svg">
<g filter="url(#filter0_d_423_34)">
<rect x="27" width="202" height="86" rx="43" fill="#B44B34"/>
<path d="M25.5747 76.4881C20.4432 76.6 18.7579 69.6781 23.2829 67.0746L41.7316 56.4599C44.5844 54.8185 48.1109 56.3067 48.8829 59.4778L51.3561 69.6361C52.1282 72.8073 49.7319 75.961 46.4966 76.0316L25.5747 76.4881Z" fill="#B44B34"/>
<path d="M71.3945 24.1406V29.375H73.9336V30.9375H71.3945V37.0117H69.5391V24.1406H71.3945ZM72.1367 39.7852V41.2891H60.3008V35.6641H62.1562V39.7852H72.1367ZM62.5664 25.3516C65.2031 25.3516 67.2148 27.1484 67.2344 29.707C67.2148 32.2461 65.2031 34.0625 62.5664 34.0625C59.9297 34.0625 57.8984 32.2461 57.918 29.707C57.8984 27.1484 59.9297 25.3516 62.5664 25.3516ZM62.5664 26.9727C60.9648 26.9727 59.7148 28.0859 59.7344 29.707C59.7148 31.3281 60.9648 32.4414 62.5664 32.4414C64.1875 32.4414 65.418 31.3281 65.418 29.707C65.418 28.0859 64.1875 26.9727 62.5664 26.9727ZM77.8398 25.1758V32.2461C80.6523 32.2363 82.6836 32.0996 84.9883 31.6406L85.2031 33.1445C82.7031 33.6523 80.4961 33.7891 77.332 33.7695H75.9648V25.1758H77.8398ZM89.5195 24.1602V34.8242H87.6641V30.5859H82.8984V29.1602H87.6641V27.5195H82.8984V26.0742H87.6641V24.1602H89.5195ZM83.6602 34.9805C87.332 34.9805 89.5781 36.2305 89.5781 38.3398C89.5781 40.4297 87.332 41.6406 83.6602 41.6602C79.9883 41.6406 77.7227 40.4297 77.7422 38.3398C77.7227 36.2305 79.9883 34.9805 83.6602 34.9805ZM83.6602 36.4453C81.1016 36.4648 79.5781 37.1484 79.5781 38.3398C79.5781 39.4922 81.1016 40.1758 83.6602 40.1758C86.2188 40.1758 87.7422 39.4922 87.7422 38.3398C87.7422 37.1484 86.2188 36.4648 83.6602 36.4453ZM105.848 24.1602V31.25H108.66V32.793H105.848V41.6602H104.012V24.1602H105.848ZM102.488 26.8945V28.418H92.1172V26.8945H96.4336V24.3945H98.2891V26.8945H102.488ZM97.3711 29.707C99.8711 29.707 101.707 31.3867 101.727 33.7695C101.707 36.1719 99.8711 37.832 97.3711 37.8516C94.8516 37.832 93.0156 36.1719 93.0156 33.7695C93.0156 31.3867 94.8516 29.707 97.3711 29.707ZM97.3711 31.2305C95.8867 31.2305 94.7734 32.2656 94.793 33.7695C94.7734 35.293 95.8867 36.3086 97.3711 36.2891C98.8555 36.3086 99.9492 35.293 99.9492 33.7695C99.9492 32.2656 98.8555 31.2305 97.3711 31.2305ZM114.832 28.9453C114.832 31.7383 116.004 34.7266 118.348 36.1523L117.312 37.5781C115.672 36.5918 114.559 34.8438 113.973 32.8125C113.318 35.0391 112.117 36.9336 110.418 37.9688L109.266 36.582C111.746 35.0977 113.035 32.0117 113.035 29.0234V25.7617H114.832V28.9453ZM124.559 24.1602V41.6602H122.781V24.1602H124.559ZM120.926 24.4922V40.8008H119.168V31.8555H116.453V30.3125H119.168V24.4922H120.926ZM142.801 37.9297V39.4727H126.785V37.9297H130.613V33.3594C129.178 32.5684 128.309 31.3086 128.309 29.7461C128.309 26.9922 131.004 25.1758 134.754 25.1758C138.523 25.1758 141.219 26.9922 141.219 29.7461C141.219 31.2891 140.379 32.5293 138.973 33.3203V37.9297H142.801ZM134.754 26.6602C132 26.6602 130.105 27.8516 130.105 29.7461C130.105 31.6211 132 32.8516 134.754 32.8516C137.488 32.8516 139.422 31.6211 139.422 29.7461C139.422 27.8516 137.488 26.6602 134.754 26.6602ZM132.449 37.9297H137.098V34.0234C136.385 34.209 135.594 34.2969 134.754 34.2969C133.934 34.2969 133.152 34.209 132.449 34.043V37.9297ZM146.941 35.8008C146.961 33.2422 147.723 32.4609 149.012 31.6602C149.832 31.1523 150.457 30.4492 150.457 29.4141C150.457 28.1836 149.52 27.4219 148.348 27.4219C147.293 27.4219 146.277 28.0664 146.18 29.5117H144.07C144.148 27.0312 146.023 25.6641 148.348 25.6641C150.887 25.6641 152.586 27.1875 152.586 29.4141C152.586 30.9766 151.844 32.0312 150.594 32.793C149.422 33.4961 148.973 34.2188 148.934 35.8008V35.918H146.941V35.8008ZM148.016 40.1367C147.254 40.1367 146.609 39.5117 146.629 38.75C146.609 37.9883 147.254 37.3633 148.016 37.3633C148.758 37.3633 149.402 37.9883 149.402 38.75C149.402 39.5117 148.758 40.1367 148.016 40.1367ZM72.2539 48.1602V65.6992H70.3984V55.9727H66.7852V54.4492H70.3984V48.1602H72.2539ZM63.8945 53.082C63.8945 56.0508 65.75 59.2344 68.4453 60.4258L67.332 61.9102C65.3105 60.9336 63.748 58.8926 62.9766 56.5C62.1953 59.0488 60.6035 61.2266 58.582 62.2617L57.4492 60.8164C60.125 59.5469 62 56.2266 62.0195 53.082V51.4414H58.1523V49.918H67.7812V51.4414H63.8945V53.082ZM89.0898 53.2773V54.7617H77.0391V48.7852H78.875V53.2773H89.0898ZM90.9258 56.9688V58.4531H74.9102V56.9688H90.9258ZM89.207 63.7266V65.25H76.9023V60.1133H78.7578V63.7266H89.207ZM101.785 49.4688C104.402 49.4688 106.258 51.8516 106.277 55.6016C106.258 59.3711 104.402 61.7539 101.785 61.7539C99.168 61.7539 97.293 59.3711 97.3125 55.6016C97.293 51.8516 99.168 49.4688 101.785 49.4688ZM101.785 51.1289C100.184 51.1289 99.0898 52.8477 99.0898 55.6016C99.0898 58.375 100.184 60.0938 101.785 60.0938C103.406 60.0938 104.5 58.375 104.5 55.6016C104.5 52.8477 103.406 51.1289 101.785 51.1289ZM110.73 48.1602V55.0156H113.543V56.5781H110.73V65.6602H108.875V48.1602H110.73ZM128.914 48.1602V65.6992H127.059V48.1602H128.914ZM123.562 49.7422V56.1289H117.273V59.957C120.105 59.9473 122.586 59.8203 125.516 59.332L125.691 60.8555C122.586 61.3828 119.949 61.5 116.863 61.5H115.379V54.6445H121.668V51.2461H115.359V49.7422H123.562ZM146.727 48.1602V65.6602H144.949V48.1602H146.727ZM143.172 48.4922V64.8008H141.395V56.3633H139.422C139.266 59.7812 137.801 61.9102 135.633 61.8906C133.348 61.9102 131.863 59.5078 131.863 55.7188C131.863 51.9297 133.348 49.5469 135.633 49.5664C137.762 49.5469 139.207 51.5684 139.422 54.8594H141.395V48.4922H143.172ZM135.633 51.3047C134.363 51.3047 133.582 52.9258 133.582 55.7188C133.582 58.5117 134.363 60.1328 135.633 60.1328C136.922 60.1328 137.723 58.5117 137.723 55.7188C137.723 52.9258 136.922 51.3047 135.633 51.3047ZM164.969 61.9297V63.4727H148.953V61.9297H152.781V57.3594C151.346 56.5684 150.477 55.3086 150.477 53.7461C150.477 50.9922 153.172 49.1758 156.922 49.1758C160.691 49.1758 163.387 50.9922 163.387 53.7461C163.387 55.2891 162.547 56.5293 161.141 57.3203V61.9297H164.969ZM156.922 50.6602C154.168 50.6602 152.273 51.8516 152.273 53.7461C152.273 55.6211 154.168 56.8516 156.922 56.8516C159.656 56.8516 161.59 55.6211 161.59 53.7461C161.59 51.8516 159.656 50.6602 156.922 50.6602ZM154.617 61.9297H159.266V58.0234C158.553 58.209 157.762 58.2969 156.922 58.2969C156.102 58.2969 155.32 58.209 154.617 58.043V61.9297ZM168.23 64.1367C167.469 64.1367 166.824 63.5117 166.844 62.75C166.824 61.9883 167.469 61.3633 168.23 61.3633C168.973 61.3633 169.617 61.9883 169.617 62.75C169.617 63.5117 168.973 64.1367 168.23 64.1367Z" fill="white"/>
</g>
<g filter="url(#filter1_d_423_34)">
<rect x="24" y="107" width="229" height="57" rx="28.5" fill="#F3B8AB"/>
<path d="M22.5747 156.488C17.4432 156.6 15.7579 149.678 20.2829 147.075L38.7316 136.46C41.5844 134.818 45.1109 136.307 45.8829 139.478L48.3561 149.636C49.1282 152.807 46.7319 155.961 43.4966 156.032L22.5747 156.488Z" fill="#F3B8AB"/>
<path d="M70.6406 137.199V138.703H63.4922V144.641H61.6758V138.703H54.625V137.199H70.6406ZM68.6289 128.098V134.973H56.6367V128.098H68.6289ZM58.4531 129.582V133.527H66.7734V129.582H58.4531ZM86.5195 127.16V139.094H84.6641V133.371H81.2461C80.8652 135.441 79.0879 136.848 76.7734 136.828C74.1367 136.848 72.1836 135.07 72.1836 132.57C72.1836 130.051 74.1367 128.332 76.7734 128.332C79.1172 128.332 80.9238 129.738 81.2656 131.867H84.6641V127.16H86.5195ZM76.7734 129.895C75.1328 129.895 73.9609 131.008 73.9609 132.57C73.9609 134.172 75.1328 135.266 76.7734 135.246C78.3555 135.266 79.5469 134.172 79.5469 132.57C79.5469 131.008 78.3555 129.895 76.7734 129.895ZM81.7344 138.43C81.7344 140.676 84.2344 142.59 87.5742 143.098L86.832 144.562C84.1074 144.113 81.8223 142.756 80.7773 140.832C79.7129 142.736 77.4277 144.113 74.6836 144.562L74.0195 143.098C77.2617 142.57 79.8203 140.598 79.8398 138.43V137.805H81.7344V138.43ZM97.1836 127.453C101.129 127.453 103.434 128.508 103.434 130.461C103.434 132.414 101.129 133.488 97.1836 133.488C93.2383 133.488 90.9336 132.414 90.9336 130.461C90.9336 128.508 93.2383 127.453 97.1836 127.453ZM97.1836 128.82C94.3906 128.82 92.8477 129.426 92.8672 130.461C92.8477 131.535 94.3906 132.102 97.1836 132.102C99.9766 132.102 101.52 131.535 101.52 130.461C101.52 129.426 99.9766 128.82 97.1836 128.82ZM105.172 134.562V136.047H89.2148V134.562H105.172ZM103.16 137.395V141.496H92.9648V143.059H103.648V144.484H91.1484V140.148H101.324V138.781H91.1289V137.395H103.16ZM125.016 127.16V134.25H127.828V135.793H125.016V144.66H123.18V127.16H125.016ZM121.656 129.895V131.418H111.285V129.895H115.602V127.395H117.457V129.895H121.656ZM116.539 132.707C119.039 132.707 120.875 134.387 120.895 136.77C120.875 139.172 119.039 140.832 116.539 140.852C114.02 140.832 112.184 139.172 112.184 136.77C112.184 134.387 114.02 132.707 116.539 132.707ZM116.539 134.23C115.055 134.23 113.941 135.266 113.961 136.77C113.941 138.293 115.055 139.309 116.539 139.289C118.023 139.309 119.117 138.293 119.117 136.77C119.117 135.266 118.023 134.23 116.539 134.23ZM142.828 128.84V130.559C142.828 132.727 142.828 135.148 142.164 138.723L140.289 138.527C140.973 135.148 140.973 132.668 140.973 130.559V130.344H130.348V128.84H142.828ZM144.625 140.754V142.297H128.668V140.754H134.742V134.582H136.578V140.754H144.625ZM165.348 127.18V136.887H163.492V127.18H165.348ZM157.203 129.504C157.184 131.828 158.883 133.957 161.559 134.777L160.66 136.242C158.6 135.578 157.066 134.201 156.266 132.414C155.475 134.338 153.912 135.852 151.812 136.555L150.895 135.09C153.629 134.191 155.309 131.926 155.309 129.504V127.805H157.203V129.504ZM165.465 137.844V139.328H163.16V142.941H165.641V144.445H153.453V142.941H155.953V139.328H153.609V137.844H165.465ZM157.789 142.941H161.324V139.328H157.789V142.941ZM176.09 128.215C179.762 128.215 182.555 130.148 182.555 133.098C182.555 136.047 179.762 138 176.09 137.98C172.418 138 169.645 136.047 169.645 133.098C169.645 130.148 172.418 128.215 176.09 128.215ZM176.09 129.719C173.414 129.699 171.402 131.066 171.422 133.098C171.402 135.148 173.414 136.457 176.09 136.457C178.766 136.457 180.758 135.148 180.758 133.098C180.758 131.066 178.766 129.699 176.09 129.719ZM184.137 140.852V142.395H168.121V140.852H184.137ZM190.738 131.945C190.738 134.738 191.91 137.727 194.254 139.152L193.219 140.578C191.578 139.592 190.465 137.844 189.879 135.812C189.225 138.039 188.023 139.934 186.324 140.969L185.172 139.582C187.652 138.098 188.941 135.012 188.941 132.023V128.762H190.738V131.945ZM200.465 127.16V144.66H198.688V127.16H200.465ZM196.832 127.492V143.801H195.074V134.855H192.359V133.312H195.074V127.492H196.832ZM218.707 140.93V142.473H202.691V140.93H206.52V136.359C205.084 135.568 204.215 134.309 204.215 132.746C204.215 129.992 206.91 128.176 210.66 128.176C214.43 128.176 217.125 129.992 217.125 132.746C217.125 134.289 216.285 135.529 214.879 136.32V140.93H218.707ZM210.66 129.66C207.906 129.66 206.012 130.852 206.012 132.746C206.012 134.621 207.906 135.852 210.66 135.852C213.395 135.852 215.328 134.621 215.328 132.746C215.328 130.852 213.395 129.66 210.66 129.66ZM208.355 140.93H213.004V137.023C212.291 137.209 211.5 137.297 210.66 137.297C209.84 137.297 209.059 137.209 208.355 137.043V140.93ZM222.848 138.801C222.867 136.242 223.629 135.461 224.918 134.66C225.738 134.152 226.363 133.449 226.363 132.414C226.363 131.184 225.426 130.422 224.254 130.422C223.199 130.422 222.184 131.066 222.086 132.512H219.977C220.055 130.031 221.93 128.664 224.254 128.664C226.793 128.664 228.492 130.188 228.492 132.414C228.492 133.977 227.75 135.031 226.5 135.793C225.328 136.496 224.879 137.219 224.84 138.801V138.918H222.848V138.801ZM223.922 143.137C223.16 143.137 222.516 142.512 222.535 141.75C222.516 140.988 223.16 140.363 223.922 140.363C224.664 140.363 225.309 140.988 225.309 141.75C225.309 142.512 224.664 143.137 223.922 143.137Z" fill="#A27979"/>
</g>
<defs>
<filter id="filter0_d_423_34" x="16.6567" y="0" width="216.343" height="94" filterUnits="userSpaceOnUse" color-interpolation-filters="sRGB">
<feFlood flood-opacity="0" result="BackgroundImageFix"/>
<feColorMatrix in="SourceAlpha" type="matrix" values="0 0 0 0 0 0 0 0 0 0 0 0 0 0 0 0 0 0 127 0" result="hardAlpha"/>
<feOffset dy="4"/>
<feGaussianBlur stdDeviation="2"/>
<feComposite in2="hardAlpha" operator="out"/>
<feColorMatrix type="matrix" values="0 0 0 0 0 0 0 0 0 0 0 0 0 0 0 0 0 0 0.25 0"/>
<feBlend mode="normal" in2="BackgroundImageFix" result="effect1_dropShadow_423_34"/>
<feBlend mode="normal" in="SourceGraphic" in2="effect1_dropShadow_423_34" result="shape"/>
</filter>
<filter id="filter1_d_423_34" x="13.6567" y="107" width="243.343" height="65" filterUnits="userSpaceOnUse" color-interpolation-filters="sRGB">
<feFlood flood-opacity="0" result="BackgroundImageFix"/>
<feColorMatrix in="SourceAlpha" type="matrix" values="0 0 0 0 0 0 0 0 0 0 0 0 0 0 0 0 0 0 127 0" result="hardAlpha"/>
<feOffset dy="4"/>
<feGaussianBlur stdDeviation="2"/>
<feComposite in2="hardAlpha" operator="out"/>
<feColorMatrix type="matrix" values="0 0 0 0 0 0 0 0 0 0 0 0 0 0 0 0 0 0 0.25 0"/>
<feBlend mode="normal" in2="BackgroundImageFix" result="effect1_dropShadow_423_34"/>
<feBlend mode="normal" in="SourceGraphic" in2="effect1_dropShadow_423_34" result="shape"/>
</filter>
</defs>
</svg>
