<svg width="212" height="66" viewBox="0 0 212 66" fill="none" xmlns="http://www.w3.org/2000/svg">
<circle cx="18.3123" cy="36.02" r="18.3123" fill="#23520A"/>
<rect x="2.85352" y="12" width="30.9168" height="11.4154" rx="5.70772" fill="#23520A"/>
<rect x="27.8047" y="40.5386" width="18.5501" height="6.18337" rx="3.09168" transform="rotate(34.9981 27.8047 40.5386)" fill="#23520A"/>
<path d="M49.936 32.228C49.936 20.816 53.572 16.928 59.296 16.928C65.056 16.928 68.692 20.816 68.692 32.228C68.692 43.604 65.056 47.528 59.296 47.528C53.572 47.528 49.936 43.64 49.936 32.228ZM79.384 47.024H69.7V17.468H79.384V26.864H82.12V35.36H79.384V47.024ZM55.912 30.356L55.264 31.328C57.64 32.408 60.592 32.948 63.292 32.948V31.868C60.592 31.868 58.036 31.22 55.912 30.356ZM83.4132 38.996V29.384C85.8252 29.384 88.3452 28.808 90.3612 27.836V26.648C88.3452 27.62 85.8252 28.196 83.4132 28.196V17.468H101.809V34.676C100.009 35.648 98.1372 35.9 96.0492 35.9V37.088C97.8132 37.088 101.089 36.944 103.141 35.828V17.468H113.941V47.024H103.141V45.44C101.089 46.268 97.3812 46.988 94.8252 46.988H91.8372C84.9972 46.988 83.4132 44.36 83.4132 38.996ZM116.17 27.62C116.17 20.276 120.31 16.928 126.034 16.928C131.794 16.928 135.934 20.276 135.934 27.62C135.934 34.928 131.794 38.312 126.034 38.312C120.31 38.312 116.17 34.964 116.17 27.62ZM132.118 47.024H116.53V39.032H132.478C134.026 39.032 135.394 38.924 136.654 38.708V17.468H147.058V47.024H136.654V46.052C135.25 46.664 133.738 47.024 132.118 47.024ZM122.074 26L121.426 26.972C123.802 28.052 126.754 28.592 129.454 28.592V27.512C126.754 27.512 124.198 26.864 122.074 26ZM160.512 28.592V22.616C166.992 22.256 169.656 20.564 169.656 18.476V17.468H181.824V18.476C181.824 20.564 184.56 22.256 191.04 22.616V28.592C182.076 28.592 178.08 27.908 172.716 24.416L171.456 25.064C172.284 25.676 173.364 26.216 174.552 26.72C170.556 28.268 166.38 28.592 160.512 28.592ZM191.04 34.424H181.284V35.18H191.04V40.436H187.116V41.444H191.04V47.024H160.512V41.444H164.796V40.436H160.512V35.18H170.196V34.424H160.512V29.312H191.04V34.424ZM171.852 40.004L171.456 41.084C174.228 41.948 177.504 42.272 180.204 42.272V41.192C177.504 41.192 174.552 40.76 171.852 40.004Z" fill="#23520A"/>
<path d="M204.845 11.0345C207.444 6.62069 204.845 0 204.845 0C204.845 0 196.004 0 193.924 3.31034C191.845 6.62069 193.924 16 193.924 16C193.924 16 202.245 15.4483 204.845 11.0345Z" fill="#23520A"/>
<path d="M167.289 59.1034C168.889 61.8621 167.289 66 167.289 66C167.289 66 161.848 66 160.569 63.931C159.289 61.8621 160.569 56 160.569 56C160.569 56 165.689 56.3448 167.289 59.1034Z" fill="#23520A"/>
<path d="M203.985 18.5317C200.705 18.8332 198.479 22.778 198.479 22.778C198.479 22.778 202.143 27.5284 204.656 27.3719C207.17 27.2154 210.988 22.4887 210.988 22.4887C210.988 22.4887 207.264 18.2303 203.985 18.5317Z" fill="#23520A"/>
<path d="M151.789 51.7714C153.975 50.6148 156.994 52.1814 156.994 52.1814C156.994 52.1814 156.683 56.1324 155.039 57.0658C153.394 57.9991 149.01 57.1341 149.01 57.1341C149.01 57.1341 149.603 52.9281 151.789 51.7714Z" fill="#23520A"/>
</svg>
