<svg width="1051" height="799" viewBox="0 0 1051 799" fill="none" xmlns="http://www.w3.org/2000/svg">
<path d="M454 342H647V357H454V342Z" fill="url(#paint0_linear_302_34)"/>
<path d="M703 762C703 782.435 634.499 799 550 799C465.5 799 397 782.435 397 762C397 741.565 465.5 725 550 725C634.499 725 703 741.565 703 762Z" fill="#8D877E"/>
<path d="M429 158H622V173H429V158Z" fill="#378036"/>
<path d="M629 494C629 482.954 637.954 474 649 474H706C717.046 474 726 482.954 726 494V518C726 529.046 717.046 538 706 538H649C637.954 538 629 529.046 629 518V494Z" fill="url(#paint1_linear_302_34)"/>
<path d="M510 386C510 374.954 518.954 366 530 366H587C598.046 366 607 374.954 607 386V410C607 421.046 598.046 430 587 430H530C518.954 430 510 421.046 510 410V386Z" fill="url(#paint2_linear_302_34)"/>
<path d="M541.393 648.801L636 254.911L537.417 0.284668L879 59L570.727 25.0286L665.37 266.64L541.553 674.866L541.393 648.801Z" fill="url(#paint3_linear_302_34)"/>
<path d="M444 669C444 652.431 457.431 639 474 639H689C705.568 639 719 652.431 719 669V736C719 752.569 705.568 766 689 766H474C457.431 766 444 752.569 444 736V669Z" fill="url(#paint4_linear_302_34)"/>
<path d="M407 638.5C407 622.208 420.207 609 436.5 609H725.5C741.792 609 755 622.208 755 638.5C755 654.792 741.792 668 725.5 668H436.5C420.207 668 407 654.792 407 638.5Z" fill="url(#paint5_linear_302_34)"/>
<path d="M622 460H815V459H622V460Z" fill="#378036"/>
<path d="M622 453H815V460H622V453Z" fill="#5C7D41"/>
<path d="M659 256H852V271H659V256Z" fill="#5C7D41"/>
<path d="M1040.63 430.491C1018.18 479.21 940.724 523.254 878.433 494.55C816.142 465.845 697.125 473.092 752.5 444C774.95 395.282 859.32 309.907 946.5 320.5C976.524 325.976 1011.5 326.951 1028.5 340C1056.52 361.502 1054.6 400.172 1040.63 430.491Z" fill="url(#paint6_linear_302_34)"/>
<path d="M52.335 202.885C117.146 145.875 259.996 131.842 333.13 214.985C406.265 298.128 586.425 365.554 485.857 372.057C421.046 429.067 241.095 499.423 119.481 426.618C78.7871 398.853 27.8674 374.468 11.3006 344.097C-15.9989 294.05 12.0008 238.363 52.335 202.885Z" fill="url(#paint7_linear_302_34)"/>
<path d="M659 487C655.134 487 652 483.866 652 480V455C652 451.134 655.134 448 659 448C662.866 448 666 451.134 666 455V480C666 483.866 662.866 487 659 487Z" fill="url(#paint8_linear_302_34)"/>
<path d="M659 487C655.134 487 652 483.866 652 480V455C652 451.134 655.134 448 659 448C662.866 448 666 451.134 666 455V480C666 483.866 662.866 487 659 487Z" fill="url(#paint9_linear_302_34)"/>
<path d="M696 487C692.134 487 689 483.866 689 480V455C689 451.134 692.134 448 696 448C699.866 448 703 451.134 703 455V480C703 483.866 699.866 487 696 487Z" fill="url(#paint10_linear_302_34)"/>
<path d="M539 379C535.134 379 532 375.866 532 372V347C532 343.134 535.134 340 539 340C542.866 340 546 343.134 546 347V372C546 375.866 542.866 379 539 379Z" fill="url(#paint11_linear_302_34)"/>
<path d="M539 379C535.134 379 532 375.866 532 372V347C532 343.134 535.134 340 539 340C542.866 340 546 343.134 546 347V372C546 375.866 542.866 379 539 379Z" fill="url(#paint12_linear_302_34)"/>
<path d="M576 379C572.134 379 569 375.866 569 372V347C569 343.134 572.134 340 576 340C579.866 340 583 343.134 583 347V372C583 375.866 579.866 379 576 379Z" fill="url(#paint13_linear_302_34)"/>
<defs>
<linearGradient id="paint0_linear_302_34" x1="0.430664" y1="399.642" x2="1050.55" y2="399.642" gradientUnits="userSpaceOnUse">
<stop stop-color="#5C7D41"/>
<stop offset="0.755" stop-color="#A7E376"/>
</linearGradient>
<linearGradient id="paint1_linear_302_34" x1="525.489" y1="0.284668" x2="525.489" y2="799" gradientUnits="userSpaceOnUse">
<stop stop-color="#E6C696"/>
<stop offset="0.205" stop-color="#E6C696"/>
<stop offset="0.535" stop-color="#907C5E"/>
<stop offset="0.6" stop-color="#806E53"/>
</linearGradient>
<linearGradient id="paint2_linear_302_34" x1="525.489" y1="0.284668" x2="525.489" y2="799" gradientUnits="userSpaceOnUse">
<stop offset="0.205" stop-color="#E6C696"/>
<stop offset="1" stop-color="#806E53"/>
</linearGradient>
<linearGradient id="paint3_linear_302_34" x1="685.542" y1="0.284668" x2="685.542" y2="799" gradientUnits="userSpaceOnUse">
<stop offset="0.405" stop-color="#A7E376"/>
<stop offset="1" stop-color="#5C7D41"/>
</linearGradient>
<linearGradient id="paint4_linear_302_34" x1="525.489" y1="0.284668" x2="525.489" y2="799" gradientUnits="userSpaceOnUse">
<stop offset="0.11" stop-color="#A27979"/>
<stop offset="0.31" stop-color="#3C2D2D"/>
</linearGradient>
<linearGradient id="paint5_linear_302_34" x1="525.489" y1="0.284668" x2="525.489" y2="799" gradientUnits="userSpaceOnUse">
<stop offset="0.11" stop-color="#A27979"/>
<stop offset="0.31" stop-color="#3C2D2D"/>
</linearGradient>
<linearGradient id="paint6_linear_302_34" x1="525.489" y1="0.284668" x2="525.489" y2="799" gradientUnits="userSpaceOnUse">
<stop stop-color="#5C7D41"/>
<stop offset="1" stop-color="#A6E377"/>
</linearGradient>
<linearGradient id="paint7_linear_302_34" x1="525.489" y1="0.284668" x2="525.489" y2="799" gradientUnits="userSpaceOnUse">
<stop stop-color="#5C7D41"/>
<stop offset="1" stop-color="#A6E377"/>
</linearGradient>
<linearGradient id="paint8_linear_302_34" x1="583" y1="359.5" x2="569" y2="359.5" gradientUnits="userSpaceOnUse">
<stop stop-color="#813232"/>
<stop offset="0.375" stop-color="#863636"/>
<stop offset="0.665" stop-color="#B85F5F"/>
</linearGradient>
<linearGradient id="paint9_linear_302_34" x1="583" y1="359.5" x2="569" y2="359.5" gradientUnits="userSpaceOnUse">
<stop stop-color="#813232"/>
<stop offset="0.375" stop-color="#863636"/>
<stop offset="0.665" stop-color="#B85F5F"/>
</linearGradient>
<linearGradient id="paint10_linear_302_34" x1="583" y1="359.5" x2="569" y2="359.5" gradientUnits="userSpaceOnUse">
<stop stop-color="#813232"/>
<stop offset="0.375" stop-color="#863636"/>
<stop offset="0.665" stop-color="#B85F5F"/>
</linearGradient>
<linearGradient id="paint11_linear_302_34" x1="583" y1="359.5" x2="569" y2="359.5" gradientUnits="userSpaceOnUse">
<stop stop-color="#813232"/>
<stop offset="0.375" stop-color="#863636"/>
<stop offset="0.665" stop-color="#B85F5F"/>
</linearGradient>
<linearGradient id="paint12_linear_302_34" x1="583" y1="359.5" x2="569" y2="359.5" gradientUnits="userSpaceOnUse">
<stop stop-color="#813232"/>
<stop offset="0.375" stop-color="#863636"/>
<stop offset="0.665" stop-color="#B85F5F"/>
</linearGradient>
<linearGradient id="paint13_linear_302_34" x1="583" y1="359.5" x2="569" y2="359.5" gradientUnits="userSpaceOnUse">
<stop stop-color="#813232"/>
<stop offset="0.375" stop-color="#863636"/>
<stop offset="0.665" stop-color="#B85F5F"/>
</linearGradient>
</defs>
</svg>
