<svg width="418" height="60" viewBox="0 0 418 60" fill="none" xmlns="http://www.w3.org/2000/svg">
<rect x="371" y="60" width="339" height="60" rx="30" transform="rotate(180 371 60)" fill="#E2BF8B"/>
<path d="M32.8028 3.03885C27.6195 2.28963 22.2481 8.22975 25.6738 10.9227L40.8693 22.8682C42.878 24.4473 46.9257 23.6515 49.3412 21.2026L57.7576 12.6701C60.3557 10.0362 59.6836 6.92435 56.4146 6.45184L32.8028 3.03885Z" fill="#E2BF8B"/>
<path d="M65.32 30.7H66.98V35.2H65.32V30.7ZM66.16 21.66C69.98 21.66 72.72 23.52 72.72 26.4C72.72 29.28 69.98 31.14 66.16 31.14C62.34 31.14 59.58 29.28 59.58 26.4C59.58 23.52 62.34 21.66 66.16 21.66ZM66.16 22.98C63.28 22.98 61.18 24.34 61.18 26.4C61.18 28.46 63.28 29.82 66.16 29.82C69.02 29.82 71.12 28.46 71.12 26.4C71.12 24.34 69.02 22.98 66.16 22.98ZM58 34.88H74.38V36.26H58V34.88ZM78.5984 24.78H90.8584V26.14H78.5984V24.78ZM76.3784 27.88H92.7784V29.24H76.3784V27.88ZM78.5984 20.74H80.2184V25.4H78.5984V20.74ZM78.4184 30.86H90.6984V35.1H80.0984V37.44H78.4584V33.86H89.0384V32.14H78.4184V30.86ZM78.4584 37.02H91.2984V38.32H78.4584V37.02ZM104.922 31.6H106.202V32.58C106.202 34.94 104.722 37.32 102.122 38.32L101.282 37.08C103.562 36.26 104.922 34.32 104.922 32.58V31.6ZM105.282 31.6H106.522V32.58C106.522 34.4 107.602 36.34 109.762 37.22L109.062 38.48C106.462 37.46 105.282 34.98 105.282 32.58V31.6ZM111.602 31.6H112.842V32.58C112.842 34.7 111.642 37.38 109.062 38.48L108.362 37.22C110.502 36.24 111.602 34.14 111.602 32.58V31.6ZM111.942 31.6H113.222V32.58C113.222 34.44 114.562 36.3 116.862 37.08L116.022 38.32C113.382 37.36 111.942 35.08 111.942 32.58V31.6ZM113.562 20.5H115.242V30.82H113.562V20.5ZM105.542 21.54C108.282 21.54 110.242 23.26 110.242 25.76C110.242 28.26 108.282 29.96 105.542 29.96C102.802 29.96 100.822 28.26 100.822 25.76C100.822 23.26 102.802 21.54 105.542 21.54ZM105.542 22.92C103.742 22.92 102.442 24.08 102.442 25.76C102.442 27.44 103.742 28.58 105.542 28.58C107.342 28.58 108.642 27.44 108.642 25.76C108.642 24.08 107.342 22.92 105.542 22.92ZM123.42 31.5H124.72V32.54C124.72 34.94 123.24 37.34 120.64 38.34L119.8 37.1C122.08 36.26 123.42 34.3 123.42 32.54V31.5ZM123.8 31.5H125.04V32.54C125.04 34.38 126.1 36.36 128.28 37.24L127.58 38.5C124.96 37.48 123.8 34.96 123.8 32.54V31.5ZM130.12 31.5H131.34V32.54C131.34 34.68 130.16 37.4 127.58 38.5L126.86 37.24C129.02 36.24 130.12 34.12 130.12 32.54V31.5ZM130.44 31.5H131.74V32.54C131.74 34.44 133.06 36.32 135.38 37.1L134.52 38.34C131.9 37.38 130.44 35.06 130.44 32.54V31.5ZM127.7 25H132.48V26.38H127.7V25ZM123.74 21.5C126.4 21.5 128.38 23.24 128.38 25.74C128.38 28.22 126.4 29.96 123.74 29.96C121.08 29.96 119.12 28.22 119.12 25.74C119.12 23.24 121.08 21.5 123.74 21.5ZM123.74 22.88C121.98 22.88 120.7 24.08 120.7 25.74C120.7 27.4 121.98 28.58 123.74 28.58C125.48 28.58 126.78 27.4 126.78 25.74C126.78 24.08 125.48 22.88 123.74 22.88ZM132.02 20.48H133.68V30.78H132.02V20.48ZM138.239 29.68H139.599C142.939 29.68 145.059 29.56 147.519 29.08L147.679 30.44C145.159 30.92 142.999 31.04 139.599 31.04H138.239V29.68ZM138.239 21.96H146.519V23.32H139.879V30.1H138.239V21.96ZM150.419 20.48H152.079V33.68H150.419V20.48ZM145.359 25.48H150.799V26.82H145.359V25.48ZM140.519 36.92H152.559V38.28H140.519V36.92ZM140.519 32.7H142.179V37.7H140.519V32.7ZM166.302 21.14C169.002 21.14 170.982 22.78 170.982 25.16C170.982 27.52 169.002 29.16 166.302 29.16C163.622 29.16 161.642 27.52 161.642 25.16C161.642 22.78 163.622 21.14 166.302 21.14ZM166.302 22.5C164.562 22.5 163.242 23.6 163.242 25.16C163.242 26.72 164.562 27.8 166.302 27.8C168.062 27.8 169.362 26.72 169.362 25.16C169.362 23.6 168.062 22.5 166.302 22.5ZM174.382 20.48H176.062V29.74H174.382V20.48ZM164.362 30.62H176.062V35.02H166.022V37.74H164.402V33.78H174.422V31.96H164.362V30.62ZM164.402 37H176.662V38.32H164.402V37ZM187.801 20.78C191.781 20.78 194.161 21.9 194.161 23.92C194.161 25.94 191.781 27.06 187.801 27.06C183.801 27.06 181.441 25.94 181.441 23.92C181.441 21.9 183.801 20.78 187.801 20.78ZM187.801 22.04C184.841 22.04 183.141 22.72 183.141 23.92C183.141 25.12 184.841 25.8 187.801 25.8C190.741 25.8 192.441 25.12 192.441 23.92C192.441 22.72 190.741 22.04 187.801 22.04ZM179.621 28.26H195.961V29.6H179.621V28.26ZM181.601 31.14H193.881V35.22H183.281V37.42H181.641V34.02H192.241V32.42H181.601V31.14ZM181.641 37.06H194.421V38.36H181.641V37.06ZM208.724 21.14C211.424 21.14 213.404 22.78 213.404 25.16C213.404 27.52 211.424 29.16 208.724 29.16C206.044 29.16 204.064 27.52 204.064 25.16C204.064 22.78 206.044 21.14 208.724 21.14ZM208.724 22.5C206.984 22.5 205.664 23.6 205.664 25.16C205.664 26.72 206.984 27.8 208.724 27.8C210.484 27.8 211.784 26.72 211.784 25.16C211.784 23.6 210.484 22.5 208.724 22.5ZM216.804 20.48H218.484V29.74H216.804V20.48ZM206.784 30.62H218.484V35.02H208.444V37.74H206.824V33.78H216.844V31.96H206.784V30.62ZM206.824 37H219.084V38.32H206.824V37ZM235.223 20.48H236.883V38.56H235.223V20.48ZM229.923 22.42H231.563C231.563 27.66 229.203 32.24 223.163 35.2L222.283 33.86C227.503 31.34 229.923 27.5 229.923 22.7V22.42ZM223.103 22.42H230.643V23.78H223.103V22.42ZM240.461 34.96H256.841V36.34H240.461V34.96ZM247.781 31.08H249.441V35.54H247.781V31.08ZM242.441 21.82H254.821V27.3H244.141V30.92H242.501V25.96H253.181V23.16H242.441V21.82ZM242.501 30.22H255.241V31.58H242.501V30.22ZM277.964 20.48H279.624V38.56H277.964V20.48ZM274.824 27H278.744V28.44H274.824V27ZM267.004 22.08H268.244V26.14C268.244 29.02 267.564 32.66 265.304 34.42L264.204 33.24C266.404 31.62 267.004 28.46 267.004 26.14V22.08ZM267.364 22.08H268.564V26.14C268.564 28.3 269.004 31.64 271.224 33.36L270.304 34.62C267.864 32.8 267.364 28.84 267.364 26.14V22.08ZM272.024 22.08H273.244V26.14C273.244 28.96 272.724 32.84 270.304 34.62L269.384 33.36C271.584 31.68 272.024 28.44 272.024 26.14V22.08ZM272.384 22.08H273.624V26.14C273.624 28.54 274.184 31.64 276.404 33.24L275.364 34.46C273.024 32.72 272.384 29.1 272.384 26.14V22.08ZM288.508 34.88H304.888V36.26H288.508V34.88ZM295.828 30.56H297.488V35.28H295.828V30.56ZM290.428 21.76H292.068V24.98H301.288V21.76H302.928V31H290.428V21.76ZM292.068 26.32V29.64H301.288V26.32H292.068ZM314.026 26.94H317.486V28.32H314.026V26.94ZM310.646 22.18H311.946V25.62C311.946 29.4 310.366 33.06 307.726 34.68L306.686 33.42C309.166 31.96 310.646 28.72 310.646 25.62V22.18ZM310.966 22.18H312.246V25.56C312.246 28.46 313.606 31.54 315.986 32.98L315.026 34.28C312.426 32.68 310.966 29.08 310.966 25.56V22.18ZM320.666 20.48H322.266V38.56H320.666V20.48ZM317.006 20.86H318.566V37.66H317.006V20.86ZM329.305 29.78H330.945V35.2H329.305V29.78ZM335.985 29.78H337.645V35.2H335.985V29.78ZM325.305 34.88H341.685V36.26H325.305V34.88ZM333.465 21.62C337.285 21.62 340.025 23.44 340.025 26.28C340.025 29.1 337.285 30.92 333.465 30.92C329.625 30.92 326.885 29.1 326.885 26.28C326.885 23.44 329.625 21.62 333.465 21.62ZM333.465 22.94C330.565 22.94 328.485 24.26 328.485 26.28C328.485 28.28 330.565 29.6 333.465 29.6C336.365 29.6 338.425 28.28 338.425 26.28C338.425 24.26 336.365 22.94 333.465 22.94ZM346.148 22.4545L346.055 32.831H344.805L344.713 22.4545H346.148ZM345.43 37.1065C345.151 37.1065 344.91 37.0071 344.706 36.8082C344.507 36.6046 344.408 36.3632 344.408 36.0838C344.408 35.7997 344.507 35.5582 344.706 35.3594C344.91 35.1605 345.151 35.0611 345.43 35.0611C345.71 35.0611 345.949 35.1605 346.148 35.3594C346.351 35.5582 346.453 35.7997 346.453 36.0838C346.453 36.2685 346.406 36.4389 346.311 36.5952C346.221 36.7514 346.098 36.8769 345.942 36.9716C345.79 37.0616 345.62 37.1065 345.43 37.1065Z" fill="black"/>
</svg>
