<svg width="97" height="85" viewBox="0 0 97 85" fill="none" xmlns="http://www.w3.org/2000/svg">
<path d="M0 41C0 29.9543 8.9543 21 20 21H77C88.0457 21 97 29.9543 97 41V65C97 76.0457 88.0457 85 77 85H20C8.95431 85 0 76.0457 0 65V41Z" fill="url(#paint0_linear_443_40)"/>
<path d="M35 34C35 38.9706 30.9706 43 26 43C21.0294 43 17 38.9706 17 34C17 29.0294 21.0294 25 26 25C30.9706 25 35 29.0294 35 34Z" fill="black" fill-opacity="0.5"/>
<path d="M80 33C80 37.9706 75.9706 42 71 42C66.0294 42 62 37.9706 62 33C62 28.0294 66.0294 24 71 24C75.9706 24 80 28.0294 80 33Z" fill="black" fill-opacity="0.5"/>
<path d="M71 39C67.134 39 64 35.866 64 32V7C64 3.13401 67.134 0 71 0C74.866 0 78 3.13401 78 7V32C78 35.866 74.866 39 71 39Z" fill="url(#paint1_linear_443_40)"/>
<path d="M26 40C22.134 40 19 36.866 19 33V8C19 4.13401 22.134 1 26 1C29.866 1 33 4.13401 33 8V33C33 36.866 29.866 40 26 40Z" fill="url(#paint2_linear_443_40)"/>
<defs>
<linearGradient id="paint0_linear_443_40" x1="48.5" y1="0" x2="48.5" y2="85" gradientUnits="userSpaceOnUse">
<stop stop-color="#E6C696"/>
<stop offset="0.205" stop-color="#E6C696"/>
<stop offset="0.535" stop-color="#907C5E"/>
<stop offset="0.6" stop-color="#806E53"/>
</linearGradient>
<linearGradient id="paint1_linear_443_40" x1="33" y1="20.5" x2="19" y2="20.5" gradientUnits="userSpaceOnUse">
<stop stop-color="#813232"/>
<stop offset="0.375" stop-color="#863636"/>
<stop offset="0.665" stop-color="#B85F5F"/>
</linearGradient>
<linearGradient id="paint2_linear_443_40" x1="33" y1="20.5" x2="19" y2="20.5" gradientUnits="userSpaceOnUse">
<stop stop-color="#813232"/>
<stop offset="0.375" stop-color="#863636"/>
<stop offset="0.665" stop-color="#B85F5F"/>
</linearGradient>
</defs>
</svg>
