<svg width="21" height="22" viewBox="0 0 21 22" fill="none" xmlns="http://www.w3.org/2000/svg">
<path d="M5 10H1C0.447715 10 0 10.3838 0 10.8571V21.1429C0 21.6162 0.447715 22 1 22H5C5.55228 22 6 21.6162 6 21.1429V10.8571C6 10.3838 5.55228 10 5 10Z" fill="#FF8383"/>
<path d="M12.1667 0H8.83333C8.3731 0 8 0.378836 8 0.846154V21.1538C8 21.6212 8.3731 22 8.83333 22H12.1667C12.6269 22 13 21.6212 13 21.1538V0.846154C13 0.378836 12.6269 0 12.1667 0Z" fill="#FF8383"/>
<path d="M20 5H16C15.4477 5 15 5.38056 15 5.85V21.15C15 21.6194 15.4477 22 16 22H20C20.5523 22 21 21.6194 21 21.15V5.85C21 5.38056 20.5523 5 20 5Z" fill="#FF8383"/>
</svg>
