<svg width="59" height="14" viewBox="0 0 59 14" fill="none" xmlns="http://www.w3.org/2000/svg">
<path d="M33.4805 7.83984V8.93848H28.1191V13.2451H26.7568V8.93848H21.4688V7.83984H33.4805ZM24.3398 0.647461V2.36133H30.5801V0.647461H31.9717V6.3457H22.9629V0.647461H24.3398ZM24.3398 5.23242H30.5801V3.47461H24.3398V5.23242Z" fill="#848484"/>
<path d="M45.3896 0.120117V7.92773H43.998V4.60254H41.5518V3.45996H43.998V0.120117H45.3896ZM40.9951 8.29395C43.749 8.29395 45.4336 9.20215 45.4336 10.7695C45.4336 12.3369 43.749 13.2305 40.9951 13.2451C38.2412 13.2305 36.542 12.3369 36.5566 10.7695C36.542 9.20215 38.2412 8.29395 40.9951 8.29395ZM40.9951 9.37793C39.0762 9.37793 37.9336 9.87598 37.9336 10.7695C37.9336 11.6484 39.0762 12.1611 40.9951 12.1465C42.9141 12.1611 44.0566 11.6484 44.0566 10.7695C44.0566 9.87598 42.9141 9.37793 40.9951 9.37793ZM39.1494 2.43457C39.1494 4.10449 40.3359 5.71582 42.3135 6.38965L41.5957 7.48828C40.1235 6.97559 39.0396 5.92822 38.4756 4.63184C37.897 6.104 36.7471 7.2832 35.1797 7.85449L34.4473 6.74121C36.4834 6.03809 37.7285 4.26562 37.7285 2.44922V2.15625H34.8867V1.02832H41.9619V2.15625H39.1494V2.43457Z" fill="#848484"/>
<path d="M52.1133 2.44922C52.1133 4.10449 53.2998 5.73047 55.2773 6.4043L54.5596 7.48828C53.0874 6.97559 51.9961 5.92822 51.4248 4.63184C50.8535 6.07471 49.7036 7.23193 48.1436 7.78125L47.4258 6.68262C49.4473 5.99414 50.6924 4.23633 50.6924 2.46387V2.09766H47.8506V0.969727H54.9258V2.09766H52.1133V2.44922ZM58.3535 8.63086V13.2451H56.9619V9.75879H49.4619V8.63086H58.3535ZM58.3535 0.120117V7.97168H56.9619V4.60254H54.5303V3.45996H56.9619V0.120117H58.3535Z" fill="#848484"/>
<path d="M13 6.5C13 10.0899 10.0899 13 6.5 13C2.91015 13 0 10.0899 0 6.5C0 2.91015 2.91015 0 6.5 0C10.0899 0 13 2.91015 13 6.5Z" fill="#FF4673"/>
</svg>
