<svg width="26" height="31" viewBox="0 0 26 31" fill="none" xmlns="http://www.w3.org/2000/svg">
<path d="M0.00488334 12.9985C0.00689994 5.81948 5.82825 0.00140189 13.0072 0.00341849C20.1862 0.0054351 26.0043 5.82679 26.0023 13.0058C26.0003 20.1848 20.1789 26.0028 12.9999 26.0008C5.82095 25.9988 0.00286673 20.1775 0.00488334 12.9985Z" fill="#FFC85D"/>
<path d="M23.973 26.004C23.9723 28.2416 22.1579 30.055 19.9203 30.0544L6.0775 30.0505C3.8399 30.0498 2.02647 28.2354 2.0271 25.9978C2.02773 23.7602 3.84217 21.9468 6.07978 21.9474L19.9226 21.9513C22.1602 21.9519 23.9736 23.7663 23.973 26.004Z" fill="#FFC85D"/>
<path d="M20 11.9999C20 15.8659 16.866 18.9999 13 18.9999C9.13404 18.9999 6.00004 15.8659 6.00004 11.9999C6.00004 8.13395 9.13404 4.99994 13 4.99994C16.866 4.99994 20 8.13395 20 11.9999Z" fill="#B69A71"/>
</svg>
